<svg width="39" height="39" viewBox="0 0 39 39" fill="none" xmlns="http://www.w3.org/2000/svg">
<path fill-rule="evenodd" clip-rule="evenodd" d="M6.31433 37.5016C11.1273 39.7683 17.7648 38.2176 23.4102 35.6501C28.6759 33.2549 34.6619 29.2475 37.7085 24.1733C39.6424 20.955 39.2102 17.494 37.6901 14.4502H31.8637C28.2607 14.4502 26.4561 16.2542 26.4561 19.8629V28.3618H24.1404V19.8629C24.1404 14.7093 26.7151 12.1346 31.8637 12.1346H36.2793C35.8747 11.5747 35.4397 11.0388 34.9848 10.5329C33.6407 9.03759 31.6111 7.62395 29.8617 6.28339C28.1735 4.98967 26.3418 3.97273 23.9091 2.83655C19.7157 0.877164 13.0576 -0.911201 8.2581 0.513808C5.43576 1.35121 4.31449 2.69887 3.01367 4.72C2.74116 4.72 1.11958 8.05473 0.546877 11.635C-0.489235 18.1206 -0.752522 34.1733 6.31433 37.5016ZM20.6581 13.2949C19.6298 13.2949 19.1124 12.7776 19.1124 11.7493C19.1124 10.7153 19.6298 10.2029 20.6581 10.2029C21.6928 10.2029 22.2045 10.7153 22.2045 11.7493C22.2045 12.7776 21.6928 13.2949 20.6581 13.2949ZM19.5028 28.3618V18.5038L17.1814 19.0467V22.9542C17.1814 26.5579 15.3775 28.3618 11.7688 28.3618H6.36188C2.75323 28.3618 0.954223 26.8161 0.954223 23.7241C0.954223 21.4773 1.73486 20.19 3.3018 19.8629L5.30377 19.4072L14.8438 17.2229C14.7501 15.3749 13.7218 14.4502 11.7688 14.4502H6.36188C4.29888 14.4502 3.26986 15.4835 3.26986 17.5415H0.954223C0.954223 13.9386 2.75323 12.1339 6.36188 12.1339H11.7688C15.0837 12.1339 16.8749 13.6561 17.1453 16.6963L21.8191 15.6269V28.3618H19.5028ZM11.7688 26.0405C13.8318 26.0405 14.8601 25.0122 14.8601 22.9542V19.6308L3.9036 22.1473C3.48135 22.2949 3.26986 22.5589 3.26986 22.9542C3.26986 25.0122 4.29888 26.0405 6.36188 26.0405H11.7688Z" fill="url(#paint0_linear_2177_3429)"/>
<defs>
<linearGradient id="paint0_linear_2177_3429" x1="37.0989" y1="55.036" x2="17.7572" y2="6.34314" gradientUnits="userSpaceOnUse">
<stop stop-color="#8E04B7"/>
<stop offset="1" stop-color="#E13C52"/>
</linearGradient>
</defs>
</svg>
